<?xml version="1.0" encoding="UTF-8"?>
<svg id="Lager_1" xmlns="http://www.w3.org/2000/svg" viewBox="0 0 546.32 146.52">
  <path id="l" d="m23.41,101.2c-7.85,0-23.41-6.65-23.41-13.44C0,79.6,17.22,19.48,22.05,4.68c.76-2.27,2.72-3.17,4.68-3.17,3.47,0,15.56,7.4,15.56,9.97,0,1.21-.3,2.57-.6,3.78-1.51,4.83-19.18,64.19-19.18,71.29,0,.75,1.66,1.66,2.57,1.66,5.59,0,12.54-9.06,19.94-22.66,0,0,1.36-2.72,3.32-2.72s5.14,2.42,5.14,4.23-1.96,5.29-1.96,5.29c-8.16,15.1-17.22,28.85-28.09,28.85Z">
    <animate 
      attributeName="opacity"
      attributeType="XML"
      values="0;1;0"
      dur="1s"
      repeatCount="indefinite"
    />
  </path>
  <path id="o" d="m95.46,90.93c-1.81,0-3.93,0-6.04-.15-4.98,6.65-11.18,10.42-17.52,10.42-10.57,0-29.45-9.97-29.45-20.84,0-21,14.35-50.15,32.63-50.15,13.29,0,29.3,11.03,29.3,20.39,0,8.01-2.57,18.43-7.4,28.4,1.21.45,2.42.45,3.93.45,9.06,0,16.16-13.9,16.16-13.9,0,0,1.36-2.72,3.17-2.72,2.11,0,5.44,2.42,5.44,4.23s-2.11,5.29-2.11,5.29c0,0-10.42,18.58-28.09,18.58Zm-26.58-2.57c1.06,0,1.96-.6,3.17-1.81-1.21-.91-1.66-1.81-1.66-3.17,0-3.02,5.74-10.57,10.27-11.18,3.78-8.61,6.19-17.52,6.19-24.77,0-1.06-1.66-3.47-4.68-3.47-5.14,0-17.07,23.11-17.07,40.03,0,3.17,2.72,4.38,3.78,4.38Z">
    <animate 
      attributeName="opacity"
      attributeType="XML"
      values="0;1;0"
      dur="1s"
      begin=".1"
      repeatCount="indefinite"
    />
  </path>
  <path id="a" d="m196.51,62.84c1.96,0,5.14,2.42,5.14,4.23s-1.96,5.29-1.96,5.29c-8.31,15.1-17.22,28.85-28.09,28.85-6.8,0-18.43-4.68-20.54-8.91,0,0-8.61,8.91-16.77,8.91-6.95,0-21-9.52-21-17.67,0-19.79,17.22-53.32,33.23-53.32,12.08,0,19.94,8.31,19.94,8.31,5.44,0,14.5,1.81,14.5,5.59,0,5.29-10.27,29.76-10.27,41.84,0,1.21,1.21,2.57,2.42,2.57,5.29,0,12.69-9.36,20.09-22.96,0,0,1.36-2.72,3.32-2.72Zm-44.41-17.67c-5.29,0-17.37,25.07-17.37,38.37,0,1.81,1.66,3.32,3.02,3.32,1.66,0,7.55-2.57,11.78-11.33,3.02-6.34,8.01-22.35,8.01-26.58,0-1.96-3.02-3.78-5.44-3.78Z">
    <animate 
      attributeName="opacity"
      attributeType="XML"
      values="0;1;0"
      dur="1s"
      begin=".2"
      repeatCount="indefinite"
    />
  </path>
  <path id="d" d="m228.07,91.99s-11.03,9.21-17.67,9.21c-9.21,0-21.15-10.42-21.15-16.77,0-19.94,16.77-55.43,34.14-55.43,6.8,0,13.44,4.38,13.44,4.38,0,0,6.34-21.6,8.61-28.7.76-2.27,1.51-3.17,4.08-3.17,4.38,0,15.86,6.95,15.86,9.52,0,3.47-1.81,8.91-8.16,30.96-4.38,15.41-10.88,37.01-10.88,43.5,0,.75,1.51,2.72,2.57,2.72,5.59,0,12.69-9.06,20.24-22.66,0,0,1.21-2.72,3.17-2.72s5.14,2.42,5.14,4.23-1.96,5.29-1.96,5.29c-8.31,15.1-17.22,28.85-28.09,28.85-6.8,0-17.22-6.04-19.33-9.21Zm-.15-47.88c-5.74,0-16.77,26.73-16.77,37.91,0,3.17,1.66,4.83,2.72,4.83,3.32,0,9.67-7.25,11.48-12.39,3.47-9.82,5.74-17.52,8.01-27.64,0,0-2.87-2.72-5.44-2.72Z">
    <animate 
      attributeName="opacity"
      attributeType="XML"
      values="0;1;0"
      dur="1s"
      begin=".3"
      repeatCount="indefinite"
    />
  </path>
  <path id="i" d="m277.46,33.38c.6-2.11,2.72-3.17,6.04-3.17,3.02,0,15.1,7.1,15.1,9.97,0,3.47-12.08,36.4-12.08,46.98,0,.6,1.06,1.36,1.51,1.36,4.38,0,12.23-9.36,19.94-22.96,0,0,1.21-2.72,3.17-2.72s5.14,2.42,5.14,4.23-2.12,5.29-2.12,5.29c-8.16,15.1-17.22,28.85-28.09,28.85-8.46,0-21.9-6.34-21.9-13.14s10.72-45.31,13.29-54.68Zm7.25-16.31c0-6.04,3.78-17.07,9.97-17.07,4.08,0,11.93,2.87,11.93,7.85,0,6.04-3.93,17.07-9.97,17.07-4.08,0-11.93-2.87-11.93-7.85Z">
    <animate 
      attributeName="opacity"
      attributeType="XML"
      values="0;1;0"
      dur="1s"
      begin=".4"
      repeatCount="indefinite"
    />
  </path>
  <path id="n" d="m362.2,88.21c4.53,0,12.54-9.06,19.94-22.66,0,0,1.36-2.72,3.32-2.72s5.14,2.42,5.14,4.23-1.96,5.29-1.96,5.29c-8.31,15.1-17.22,28.85-28.09,28.85-6.8,0-21.9-6.34-21.9-13.14,0-9.67,8.46-33.83,8.46-39.57,0-1.36-1.36-3.02-3.02-3.02-3.17,0-9.06,2.57-11.03,7.4-4.08,9.97-10.88,40.48-11.78,44.86-.6,1.96-3.02,3.47-5.74,3.47-3.47,0-14.35-3.78-14.35-7.85s11.48-49.69,14.65-59.97c.91-2.11,3.93-3.17,6.19-3.17,3.47,0,10.12,7.4,10.12,7.4,0,0,14.05-7.4,22.66-7.4,5.74,0,15.56,6.65,15.56,12.23,0,7.1-9.36,36.1-9.36,44.11,0,.6.45,1.66,1.21,1.66Z">
    <animate 
      attributeName="opacity"
      attributeType="XML"
      values="0;1;0"
      dur="1s"
      begin=".5"
      repeatCount="indefinite"
    />
  </path>
  <path id="g" d="m399.2,101.2c-8.16,0-21-9.97-21-17.67,0-19.94,17.67-53.32,33.23-53.32,12.08,0,20.09,8.16,20.09,8.16,5.59,0,14.2,1.96,14.2,5.74,0,2.42-6.34,26.43-12.39,48.18l-3.78,12.84c8.46,1.06,14.05,4.38,14.05,6.34,0,2.57-4.08,7.85-6.8,7.85-2.42,0-4.53-3.32-10.12-4.68-3.62,12.08-6.65,20.84-8.91,24.77-2.72,4.83-11.78,7.1-17.67,7.1-8.76,0-19.94-9.67-19.94-14.8,0-11.33,15.86-20.39,27.49-24.32,2.72-8.31,3.93-12.39,3.93-12.39,0,0-6.34,6.19-12.39,6.19Zm5.59,16.46c-6.5,3.32-12.84,7.55-12.84,12.99,0,.45.91,1.81,1.96,1.81,2.42,0,6.19-2.12,6.8-3.62,1.21-2.72,1.96-4.98,4.08-11.18Zm-4.38-34.14c0,2.12,1.51,3.32,2.42,3.32,3.02,0,7.4-2.87,11.63-11.33,3.17-6.34,7.7-23.71,7.7-27.94,0-.91-2.72-2.42-5.14-2.42-6.65,0-16.62,25.07-16.62,38.37Z">
    <animate 
      attributeName="opacity"
      attributeType="XML"
      values="0;1;0"
      dur="1s"
      begin=".6"
      repeatCount="indefinite"
    />
  </path>
  <path id="dot1" d="m453.73,78.39c4.23,0,10.72,4.98,10.72,8.76,0,5.29-3.78,15.86-11.03,15.86-4.08,0-10.72-4.68-10.72-8.91,0-5.59,4.08-15.71,11.03-15.71Z">
    <animate 
      attributeName="opacity"
      attributeType="XML"
      values="0;1;0"
      dur="1s"
      begin=".7"
      repeatCount="indefinite"
    />
  </path>
  <path id="dot2" d="m494.66,78.39c4.23,0,10.72,4.98,10.72,8.76,0,5.29-3.78,15.86-11.03,15.86-4.08,0-10.72-4.68-10.72-8.91,0-5.59,4.08-15.71,11.03-15.71Z">
    <animate 
      attributeName="opacity"
      attributeType="XML"
      values="0;1;0"
      dur="1s"
      begin=".8"
      repeatCount="indefinite"
    />
  </path>
  <path id="dot3" d="m535.6,78.39c4.23,0,10.72,4.98,10.72,8.76,0,5.29-3.78,15.86-11.03,15.86-4.08,0-10.72-4.68-10.72-8.91,0-5.59,4.08-15.71,11.03-15.71Z">
    <animate 
      attributeName="opacity"
      attributeType="XML"
      values="0;1;0"
      dur="1s"
      begin=".9"
      repeatCount="indefinite"
    />
  </path>
</svg>